<svg width="149" height="64" viewBox="0 0 149 64" fill="none" xmlns="http://www.w3.org/2000/svg">
<rect y="10" width="46" height="44" rx="8" fill="#746FF0"/>
<rect y="10" width="46" height="44" rx="8" fill="#746FF0"/>
<path d="M22.0813 23.152C23.8573 23.152 25.4093 23.504 26.7373 24.208C28.0653 24.912 29.0893 25.904 29.8093 27.184C30.5453 28.448 30.9133 29.912 30.9133 31.576C30.9133 33.224 30.5453 34.688 29.8093 35.968C29.0893 37.248 28.0573 38.24 26.7133 38.944C25.3853 39.648 23.8413 40 22.0813 40H15.7693V23.152H22.0813ZM21.8173 36.448C23.3693 36.448 24.5773 36.024 25.4413 35.176C26.3053 34.328 26.7373 33.128 26.7373 31.576C26.7373 30.024 26.3053 28.816 25.4413 27.952C24.5773 27.088 23.3693 26.656 21.8173 26.656H19.8733V36.448H21.8173Z" fill="white"/>
<path d="M71.36 39V25H76.14C77.78 25 79.1267 25.2933 80.18 25.88C81.2467 26.4533 82.0333 27.2667 82.54 28.32C83.06 29.36 83.32 30.5867 83.32 32C83.32 33.4133 83.06 34.6467 82.54 35.7C82.0333 36.74 81.2467 37.5533 80.18 38.14C79.1267 38.7133 77.78 39 76.14 39H71.36ZM73.92 36.8H76.02C77.1933 36.8 78.12 36.6133 78.8 36.24C79.48 35.8533 79.9667 35.3067 80.26 34.6C80.5533 33.88 80.7 33.0133 80.7 32C80.7 31 80.5533 30.14 80.26 29.42C79.9667 28.7 79.48 28.1467 78.8 27.76C78.12 27.3733 77.1933 27.18 76.02 27.18H73.92V36.8ZM90.4388 39.24C89.4388 39.24 88.5521 39.0267 87.7788 38.6C87.0054 38.1733 86.3988 37.5733 85.9588 36.8C85.5188 36.0267 85.2988 35.1333 85.2988 34.12C85.2988 33.0933 85.5121 32.18 85.9388 31.38C86.3788 30.58 86.9788 29.96 87.7388 29.52C88.5121 29.0667 89.4188 28.84 90.4588 28.84C91.4321 28.84 92.2921 29.0533 93.0388 29.48C93.7854 29.9067 94.3654 30.4933 94.7788 31.24C95.2054 31.9733 95.4188 32.7933 95.4188 33.7C95.4188 33.8467 95.4121 34 95.3988 34.16C95.3988 34.32 95.3921 34.4867 95.3788 34.66H87.8388C87.8921 35.4333 88.1588 36.04 88.6388 36.48C89.1321 36.92 89.7254 37.14 90.4188 37.14C90.9388 37.14 91.3721 37.0267 91.7188 36.8C92.0788 36.56 92.3454 36.2533 92.5188 35.88H95.1188C94.9321 36.5067 94.6188 37.08 94.1788 37.6C93.7521 38.1067 93.2188 38.5067 92.5788 38.8C91.9521 39.0933 91.2388 39.24 90.4388 39.24ZM90.4588 30.92C89.8321 30.92 89.2788 31.1 88.7988 31.46C88.3188 31.8067 88.0121 32.34 87.8788 33.06H92.8188C92.7788 32.4067 92.5388 31.8867 92.0988 31.5C91.6588 31.1133 91.1121 30.92 90.4588 30.92ZM97.0319 39V36.94L102.092 31.2H97.0919V29.08H105.012V31.14L99.8719 36.88H105.112V39H97.0319ZM110.762 39.24C109.909 39.24 109.209 39.1067 108.662 38.84C108.116 38.56 107.709 38.1933 107.442 37.74C107.176 37.2867 107.042 36.7867 107.042 36.24C107.042 35.32 107.402 34.5733 108.122 34C108.842 33.4267 109.922 33.14 111.362 33.14H113.882V32.9C113.882 32.22 113.689 31.72 113.302 31.4C112.916 31.08 112.436 30.92 111.862 30.92C111.342 30.92 110.889 31.0467 110.502 31.3C110.116 31.54 109.876 31.9 109.782 32.38H107.282C107.349 31.66 107.589 31.0333 108.002 30.5C108.429 29.9667 108.976 29.56 109.642 29.28C110.309 28.9867 111.056 28.84 111.882 28.84C113.296 28.84 114.409 29.1933 115.222 29.9C116.036 30.6067 116.442 31.6067 116.442 32.9V39H114.262L114.022 37.4C113.729 37.9333 113.316 38.3733 112.782 38.72C112.262 39.0667 111.589 39.24 110.762 39.24ZM111.342 37.24C112.076 37.24 112.642 37 113.042 36.52C113.456 36.04 113.716 35.4467 113.822 34.74H111.642C110.962 34.74 110.476 34.8667 110.182 35.12C109.889 35.36 109.742 35.66 109.742 36.02C109.742 36.4067 109.889 36.7067 110.182 36.92C110.476 37.1333 110.862 37.24 111.342 37.24ZM120.365 27.54C119.898 27.54 119.512 27.4 119.205 27.12C118.912 26.84 118.765 26.4867 118.765 26.06C118.765 25.6333 118.912 25.2867 119.205 25.02C119.512 24.74 119.898 24.6 120.365 24.6C120.832 24.6 121.212 24.74 121.505 25.02C121.812 25.2867 121.965 25.6333 121.965 26.06C121.965 26.4867 121.812 26.84 121.505 27.12C121.212 27.4 120.832 27.54 120.365 27.54ZM119.085 39V29.08H121.645V39H119.085ZM124.417 39V29.08H126.677L126.877 30.76C127.184 30.1733 127.624 29.7067 128.197 29.36C128.784 29.0133 129.471 28.84 130.257 28.84C131.484 28.84 132.437 29.2267 133.117 30C133.797 30.7733 134.137 31.9067 134.137 33.4V39H131.577V33.64C131.577 32.7867 131.404 32.1333 131.057 31.68C130.711 31.2267 130.171 31 129.437 31C128.717 31 128.124 31.2533 127.657 31.76C127.204 32.2667 126.977 32.9733 126.977 33.88V39H124.417ZM141.245 39.24C140.312 39.24 139.478 39.0133 138.745 38.56C138.012 38.1067 137.432 37.4867 137.005 36.7C136.578 35.9133 136.365 35.02 136.365 34.02C136.365 33.02 136.578 32.1333 137.005 31.36C137.432 30.5733 138.012 29.96 138.745 29.52C139.478 29.0667 140.312 28.84 141.245 28.84C141.992 28.84 142.645 28.98 143.205 29.26C143.765 29.54 144.218 29.9333 144.565 30.44V24.6H147.125V39H144.845L144.565 37.58C144.245 38.02 143.818 38.4067 143.285 38.74C142.765 39.0733 142.085 39.24 141.245 39.24ZM141.785 37C142.612 37 143.285 36.7267 143.805 36.18C144.338 35.62 144.605 34.9067 144.605 34.04C144.605 33.1733 144.338 32.4667 143.805 31.92C143.285 31.36 142.612 31.08 141.785 31.08C140.972 31.08 140.298 31.3533 139.765 31.9C139.232 32.4467 138.965 33.1533 138.965 34.02C138.965 34.8867 139.232 35.6 139.765 36.16C140.298 36.72 140.972 37 141.785 37Z" fill="#333539"/>
</svg>
